<svg width="878" height="610" viewBox="0 0 878 610" fill="none" xmlns="http://www.w3.org/2000/svg">
<g filter="url(#filter0_i_13_52)">
<g clip-path="url(#clip0_13_52)">
<rect width="878" height="610" rx="24" fill="#494848"/>
<g filter="url(#filter1_dii_13_52)">
<path d="M0 24C0 10.7452 10.7452 0 24 0H854C867.255 0 878 10.7452 878 24V67H0V24Z" fill="#D2D2D2"/>
<path d="M318.984 43L325.834 23.2715H330.688L337.551 43H333.203L331.74 38.2148H324.781L323.318 43H318.984ZM328.145 27.209L325.725 35.125H330.797L328.391 27.209H328.145ZM345.337 43.2324C341.577 43.2324 339.225 40.293 339.225 35.4805V35.4531C339.225 30.6133 341.522 27.7012 345.337 27.7012C347.401 27.7012 349.083 28.7129 349.835 30.3535H350.081V22.1914H354.073V43H350.081V40.6621H349.835C349.055 42.2891 347.456 43.2324 345.337 43.2324ZM346.69 39.9238C348.809 39.9238 350.122 38.2559 350.122 35.4941V35.4668C350.122 32.7051 348.796 31.0098 346.69 31.0098C344.585 31.0098 343.286 32.7051 343.286 35.4531V35.4805C343.286 38.2559 344.585 39.9238 346.69 39.9238ZM365.167 43.3145C360.533 43.3145 357.744 40.375 357.744 35.4805V35.4531C357.744 30.5996 360.574 27.6191 365.167 27.6191C369.761 27.6191 372.591 30.5859 372.591 35.4531V35.4805C372.591 40.3887 369.802 43.3145 365.167 43.3145ZM365.167 40.1836C367.287 40.1836 368.503 38.4473 368.503 35.4805V35.4531C368.503 32.5137 367.273 30.75 365.167 30.75C363.048 30.75 361.831 32.5137 361.831 35.4531V35.4805C361.831 38.4473 363.035 40.1836 365.167 40.1836ZM385.012 43.2324C382.879 43.2324 381.279 42.2891 380.5 40.6621H380.254V43H376.262V22.1914H380.254V30.3535H380.5C381.266 28.7129 382.947 27.7012 385.012 27.7012C388.826 27.7012 391.123 30.6133 391.123 35.4531V35.4805C391.123 40.293 388.772 43.2324 385.012 43.2324ZM383.645 39.9238C385.764 39.9238 387.063 38.2559 387.063 35.4805V35.4531C387.063 32.7051 385.75 31.0098 383.645 31.0098C381.553 31.0098 380.213 32.7051 380.213 35.4668V35.4941C380.213 38.2559 381.539 39.9238 383.645 39.9238ZM401.261 43.3145C396.681 43.3145 393.905 40.3203 393.905 35.4941V35.4805C393.905 30.6953 396.708 27.6191 401.097 27.6191C405.485 27.6191 408.22 30.627 408.22 35.1797V36.4238H397.856C397.897 38.8984 399.224 40.334 401.343 40.334C403.093 40.334 404.063 39.4043 404.337 38.8301L404.378 38.748H408.097L408.069 38.8848C407.604 40.7715 405.663 43.3145 401.261 43.3145ZM401.165 30.6133C399.429 30.6133 398.143 31.7891 397.897 33.9219H404.391C404.145 31.7344 402.901 30.6133 401.165 30.6133ZM419.662 43V23.2715H423.791V43H419.662ZM428.597 43V22.1914H432.589V43H428.597ZM437.135 43V22.1914H441.127V43H437.135ZM450.512 43.3145C447.135 43.3145 445.399 41.2637 445.399 37.6816V27.9473H449.391V36.7656C449.391 38.8984 450.198 40.0059 452.084 40.0059C454.053 40.0059 455.12 38.6797 455.12 36.6426V27.9473H459.112V43H455.12V40.6758H454.874C454.19 42.3164 452.659 43.3145 450.512 43.3145ZM469.386 43.3145C465.298 43.3145 462.974 41.4824 462.687 38.8984L462.673 38.8438H466.597L466.624 38.8984C466.939 39.8281 467.855 40.498 469.427 40.498C470.958 40.498 471.997 39.8418 471.997 38.8438V38.8164C471.997 38.0098 471.396 37.5039 469.864 37.1621L467.349 36.6289C464.478 36.0137 463.056 34.6055 463.056 32.3496V32.3359C463.056 29.5059 465.571 27.6191 469.331 27.6191C473.282 27.6191 475.47 29.5879 475.634 32.0078V32.0625H471.929L471.915 31.9941C471.696 31.1875 470.808 30.4355 469.318 30.4355C467.937 30.4355 466.952 31.0781 466.952 32.0898V32.1035C466.952 32.9102 467.513 33.375 469.071 33.7168L471.573 34.25C474.581 34.8926 475.989 36.1504 475.989 38.3789V38.3926C475.989 41.373 473.241 43.3145 469.386 43.3145ZM485.703 43.0547C482.039 43.0547 480.562 41.8652 480.562 38.9395V30.9551H478.238V27.9473H480.562V24.3516H484.596V27.9473H487.699V30.9551H484.596V38.0234C484.596 39.377 485.17 39.9785 486.523 39.9785C487.043 39.9785 487.316 39.9512 487.699 39.9102V42.877C487.207 42.9727 486.469 43.0547 485.703 43.0547ZM491.301 43V27.9473H495.294V30.2852H495.54C496.018 28.6582 497.385 27.7012 499.34 27.7012C499.874 27.7012 500.434 27.7832 500.831 27.8926V31.3789C500.229 31.2422 499.614 31.1465 498.999 31.1465C496.729 31.1465 495.294 32.4453 495.294 34.5781V43H491.301ZM507.605 43.2324C504.734 43.2324 502.697 41.4551 502.697 38.7207V38.6934C502.697 35.9863 504.788 34.4004 508.535 34.1816L512.171 33.9629V32.7188C512.171 31.4199 511.283 30.6816 509.642 30.6816C508.206 30.6816 507.29 31.1875 506.976 32.0762L506.949 32.1309H503.257L503.271 32.0078C503.585 29.3691 506.074 27.6191 509.861 27.6191C513.853 27.6191 516.109 29.5059 516.109 32.7188V43H512.171V41.0039H511.925C511.16 42.3984 509.574 43.2324 507.605 43.2324ZM506.593 38.4746C506.593 39.623 507.564 40.3203 508.945 40.3203C510.79 40.3203 512.171 39.1035 512.171 37.5176V36.4102L509.136 36.6016C507.427 36.7109 506.593 37.3535 506.593 38.4473V38.4746ZM526.547 43.0547C522.883 43.0547 521.406 41.8652 521.406 38.9395V30.9551H519.082V27.9473H521.406V24.3516H525.44V27.9473H528.543V30.9551H525.44V38.0234C525.44 39.377 526.014 39.9785 527.367 39.9785C527.887 39.9785 528.16 39.9512 528.543 39.9102V42.877C528.051 42.9727 527.313 43.0547 526.547 43.0547ZM538.721 43.3145C534.087 43.3145 531.298 40.375 531.298 35.4805V35.4531C531.298 30.5996 534.128 27.6191 538.721 27.6191C543.315 27.6191 546.145 30.5859 546.145 35.4531V35.4805C546.145 40.3887 543.356 43.3145 538.721 43.3145ZM538.721 40.1836C540.841 40.1836 542.057 38.4473 542.057 35.4805V35.4531C542.057 32.5137 540.827 30.75 538.721 30.75C536.602 30.75 535.386 32.5137 535.386 35.4531V35.4805C535.386 38.4473 536.589 40.1836 538.721 40.1836ZM549.679 43V27.9473H553.671V30.2852H553.917C554.396 28.6582 555.763 27.7012 557.718 27.7012C558.251 27.7012 558.812 27.7832 559.209 27.8926V31.3789C558.607 31.2422 557.992 31.1465 557.376 31.1465C555.107 31.1465 553.671 32.4453 553.671 34.5781V43H549.679Z" fill="#404040"/>
</g>
<path d="M34.623 170.26L64.528 112.861C65.8148 110.391 69.3488 110.391 70.6356 112.861L100.541 170.26C101.735 172.552 100.072 175.294 97.4868 175.294H67.5818H37.6768C35.0919 175.294 33.4286 172.552 34.623 170.26Z" fill="#F3C42C"/>
<rect x="63.3464" y="127.647" width="8.47059" height="25.4118" fill="black"/>
<rect x="63.3465" y="157.294" width="8.47059" height="8.47059" fill="black"/>
<path d="M149.574 130V115.352H144.253V113.09H157.507V115.352H152.199V130H149.574ZM160.554 130V112.281H163.097V119.207H163.285C163.906 117.848 165.125 117.027 166.976 117.027C169.824 117.027 171.394 118.727 171.394 121.762V130H168.863V122.359C168.863 120.25 167.984 119.207 166.121 119.207C164.257 119.207 163.097 120.484 163.097 122.535V130H160.554ZM180.289 130.246C176.562 130.246 174.312 127.703 174.312 123.672V123.66C174.312 119.688 176.609 117.027 180.16 117.027C183.711 117.027 185.89 119.594 185.89 123.414V124.305H176.867C176.914 126.742 178.25 128.16 180.347 128.16C181.976 128.16 182.949 127.352 183.253 126.695L183.3 126.602L185.75 126.59L185.726 126.695C185.304 128.371 183.546 130.246 180.289 130.246ZM180.171 119.113C178.437 119.113 177.125 120.297 176.902 122.488H183.371C183.171 120.215 181.894 119.113 180.171 119.113ZM196.378 130V119.277H194.281V117.273H196.378V115.938C196.378 113.406 197.656 112.164 200.316 112.164C200.878 112.164 201.371 112.199 201.816 112.281V114.145C201.582 114.109 201.242 114.086 200.843 114.086C199.437 114.086 198.886 114.766 198.886 116.055V117.273H201.711V119.277H198.91V130H196.378ZM209.468 130.246C205.73 130.246 203.445 127.75 203.445 123.648V123.625C203.445 119.535 205.742 117.027 209.468 117.027C213.183 117.027 215.48 119.523 215.48 123.625V123.648C215.48 127.75 213.195 130.246 209.468 130.246ZM209.468 128.125C211.648 128.125 212.89 126.461 212.89 123.648V123.625C212.89 120.801 211.648 119.148 209.468 119.148C207.277 119.148 206.046 120.801 206.046 123.625V123.648C206.046 126.473 207.277 128.125 209.468 128.125ZM218.632 130V112.281H221.175V130H218.632ZM225.078 130V112.281H227.621V130H225.078ZM236.796 130.246C233.058 130.246 230.773 127.75 230.773 123.648V123.625C230.773 119.535 233.07 117.027 236.796 117.027C240.511 117.027 242.808 119.523 242.808 123.625V123.648C242.808 127.75 240.523 130.246 236.796 130.246ZM236.796 128.125C238.976 128.125 240.218 126.461 240.218 123.648V123.625C240.218 120.801 238.976 119.148 236.796 119.148C234.605 119.148 233.375 120.801 233.375 123.625V123.648C233.375 126.473 234.605 128.125 236.796 128.125ZM247.8 130L244.285 117.273H246.839L249.125 127.094H249.312L251.937 117.273H254.351L256.976 127.094H257.175L259.449 117.273H261.968L258.464 130H255.851L253.214 120.508H253.015L250.39 130H247.8ZM265.894 115C265.015 115 264.3 114.285 264.3 113.418C264.3 112.539 265.015 111.824 265.894 111.824C266.761 111.824 267.488 112.539 267.488 113.418C267.488 114.285 266.761 115 265.894 115ZM264.617 130V117.273H267.148V130H264.617ZM270.851 130V117.273H273.394V119.207H273.582C274.203 117.848 275.421 117.027 277.273 117.027C280.121 117.027 281.691 118.727 281.691 121.762V130H279.16V122.359C279.16 120.25 278.281 119.207 276.418 119.207C274.554 119.207 273.394 120.484 273.394 122.535V130H270.851ZM290.621 134.488C287.386 134.488 285.394 133.07 285.089 130.949L285.113 130.926H287.679L287.691 130.949C287.902 131.828 288.933 132.449 290.656 132.449C292.753 132.449 293.996 131.465 293.996 129.73V127.223H293.808C293.035 128.605 291.628 129.379 289.882 129.379C286.613 129.379 284.597 126.859 284.597 123.273V123.25C284.597 119.617 286.625 117.051 289.929 117.051C291.711 117.051 293.093 117.93 293.832 119.359H293.984V117.273H296.515V129.742C296.515 132.637 294.23 134.488 290.621 134.488ZM290.586 127.281C292.742 127.281 294.043 125.641 294.043 123.262V123.238C294.043 120.871 292.73 119.207 290.586 119.207C288.418 119.207 287.199 120.871 287.199 123.238V123.262C287.199 125.629 288.418 127.281 290.586 127.281ZM308.058 115C307.179 115 306.464 114.285 306.464 113.418C306.464 112.539 307.179 111.824 308.058 111.824C308.925 111.824 309.652 112.539 309.652 113.418C309.652 114.285 308.925 115 308.058 115ZM306.781 130V117.273H309.312V130H306.781ZM317.82 130.082C315.019 130.082 313.871 129.098 313.871 126.648V119.277H311.878V117.273H313.871V114.062H316.461V117.273H319.191V119.277H316.461V126.039C316.461 127.41 316.976 127.973 318.23 127.973C318.617 127.973 318.839 127.961 319.191 127.926V129.953C318.781 130.023 318.312 130.082 317.82 130.082ZM327.359 130.246C323.632 130.246 321.382 127.703 321.382 123.672V123.66C321.382 119.688 323.679 117.027 327.23 117.027C330.781 117.027 332.961 119.594 332.961 123.414V124.305H323.937C323.984 126.742 325.32 128.16 327.418 128.16C329.046 128.16 330.019 127.352 330.324 126.695L330.371 126.602L332.82 126.59L332.796 126.695C332.375 128.371 330.617 130.246 327.359 130.246ZM327.242 119.113C325.507 119.113 324.195 120.297 323.972 122.488H330.441C330.242 120.215 328.964 119.113 327.242 119.113ZM335.984 130V117.273H338.527V119.23H338.714C339.277 117.836 340.519 117.027 342.183 117.027C343.918 117.027 345.148 117.93 345.711 119.301H345.91C346.554 117.93 348.019 117.027 349.789 117.027C352.355 117.027 353.855 118.574 353.855 121.223V130H351.324V121.832C351.324 120.074 350.527 119.207 348.863 119.207C347.246 119.207 346.179 120.414 346.179 121.949V130H343.648V121.574C343.648 120.121 342.699 119.207 341.199 119.207C339.664 119.207 338.527 120.52 338.527 122.184V130H335.984ZM362.035 130.246C358.964 130.246 357.019 128.805 356.773 126.672V126.66H359.316L359.328 126.672C359.644 127.633 360.57 128.277 362.082 128.277C363.652 128.277 364.742 127.562 364.742 126.52V126.496C364.742 125.699 364.144 125.16 362.668 124.82L360.64 124.352C358.238 123.801 357.125 122.711 357.125 120.848V120.836C357.125 118.621 359.187 117.027 362.07 117.027C364.976 117.027 366.839 118.48 367.062 120.555V120.566H364.636V120.543C364.39 119.652 363.488 118.984 362.058 118.984C360.664 118.984 359.656 119.676 359.656 120.695V120.719C359.656 121.516 360.242 122.008 361.671 122.348L363.687 122.805C366.136 123.379 367.308 124.422 367.308 126.262V126.285C367.308 128.641 365.058 130.246 362.035 130.246ZM382.261 130.246C378.546 130.246 376.273 127.715 376.273 123.602V123.578C376.273 119.547 378.535 117.027 382.25 117.027C385.449 117.027 387.359 118.832 387.711 121.305V121.363L385.273 121.375L385.261 121.34C384.98 120.086 383.949 119.148 382.261 119.148C380.14 119.148 378.863 120.836 378.863 123.578V123.602C378.863 126.414 380.164 128.125 382.261 128.125C383.855 128.125 384.839 127.398 385.25 126.027L385.273 125.969H387.711L387.687 126.074C387.23 128.547 385.414 130.246 382.261 130.246ZM395.984 130.246C392.246 130.246 389.961 127.75 389.961 123.648V123.625C389.961 119.535 392.257 117.027 395.984 117.027C399.699 117.027 401.996 119.523 401.996 123.625V123.648C401.996 127.75 399.711 130.246 395.984 130.246ZM395.984 128.125C398.164 128.125 399.406 126.461 399.406 123.648V123.625C399.406 120.801 398.164 119.148 395.984 119.148C393.793 119.148 392.562 120.801 392.562 123.625V123.648C392.562 126.473 393.793 128.125 395.984 128.125ZM409.273 130.246C406.402 130.246 404.914 128.523 404.914 125.512V117.273H407.457V124.914C407.457 127.023 408.23 128.066 410.093 128.066C412.132 128.066 413.222 126.789 413.222 124.738V117.273H415.753V130H413.222V128.078H413.023C412.414 129.449 411.125 130.246 409.273 130.246ZM419.539 130V112.281H422.082V130H419.539ZM430.507 130.211C427.308 130.211 425.234 127.645 425.234 123.648V123.625C425.234 119.594 427.273 117.051 430.507 117.051C432.253 117.051 433.742 117.918 434.421 119.289H434.621V112.281H437.152V130H434.621V127.996H434.421C433.683 129.391 432.289 130.211 430.507 130.211ZM431.234 128.043C433.355 128.043 434.656 126.367 434.656 123.648V123.625C434.656 120.906 433.343 119.23 431.234 119.23C429.101 119.23 427.824 120.895 427.824 123.625V123.648C427.824 126.379 429.101 128.043 431.234 128.043ZM447.5 130V117.273H450.043V119.207H450.23C450.851 117.848 452.07 117.027 453.921 117.027C456.769 117.027 458.339 118.727 458.339 121.762V130H455.808V122.359C455.808 120.25 454.929 119.207 453.066 119.207C451.203 119.207 450.043 120.484 450.043 122.535V130H447.5ZM467.281 130.246C463.543 130.246 461.257 127.75 461.257 123.648V123.625C461.257 119.535 463.554 117.027 467.281 117.027C470.996 117.027 473.293 119.523 473.293 123.625V123.648C473.293 127.75 471.007 130.246 467.281 130.246ZM467.281 128.125C469.461 128.125 470.703 126.461 470.703 123.648V123.625C470.703 120.801 469.461 119.148 467.281 119.148C465.089 119.148 463.859 120.801 463.859 123.625V123.648C463.859 126.473 465.089 128.125 467.281 128.125ZM481.132 130.082C478.332 130.082 477.183 129.098 477.183 126.648V119.277H475.191V117.273H477.183V114.062H479.773V117.273H482.503V119.277H479.773V126.039C479.773 127.41 480.289 127.973 481.543 127.973C481.929 127.973 482.152 127.961 482.503 127.926V129.953C482.093 130.023 481.625 130.082 481.132 130.082ZM498.793 130.211C497.011 130.211 495.617 129.391 494.878 127.996H494.691V130H492.148V112.281H494.691V119.289H494.878C495.558 117.918 497.046 117.051 498.793 117.051C502.027 117.051 504.066 119.594 504.066 123.625V123.648C504.066 127.645 502.003 130.211 498.793 130.211ZM498.078 128.043C500.199 128.043 501.476 126.379 501.476 123.648V123.625C501.476 120.895 500.199 119.23 498.078 119.23C495.957 119.23 494.644 120.906 494.644 123.625V123.648C494.644 126.367 495.957 128.043 498.078 128.043ZM512.445 130.246C508.718 130.246 506.468 127.703 506.468 123.672V123.66C506.468 119.688 508.765 117.027 512.316 117.027C515.867 117.027 518.046 119.594 518.046 123.414V124.305H509.023C509.07 126.742 510.406 128.16 512.503 128.16C514.132 128.16 515.105 127.352 515.41 126.695L515.457 126.602L517.906 126.59L517.882 126.695C517.461 128.371 515.703 130.246 512.445 130.246ZM512.328 119.113C510.593 119.113 509.281 120.297 509.058 122.488H515.527C515.328 120.215 514.05 119.113 512.328 119.113ZM528.957 115C528.078 115 527.363 114.285 527.363 113.418C527.363 112.539 528.078 111.824 528.957 111.824C529.824 111.824 530.55 112.539 530.55 113.418C530.55 114.285 529.824 115 528.957 115ZM527.679 130V117.273H530.211V130H527.679ZM533.914 130V117.273H536.457V119.23H536.644C537.207 117.836 538.449 117.027 540.113 117.027C541.847 117.027 543.078 117.93 543.64 119.301H543.839C544.484 117.93 545.949 117.027 547.718 117.027C550.285 117.027 551.785 118.574 551.785 121.223V130H549.253V121.832C549.253 120.074 548.457 119.207 546.793 119.207C545.175 119.207 544.109 120.414 544.109 121.949V130H541.578V121.574C541.578 120.121 540.628 119.207 539.128 119.207C537.593 119.207 536.457 120.52 536.457 122.184V130H533.914ZM555.336 134.242V117.273H557.878V119.277H558.066C558.804 117.883 560.199 117.051 561.98 117.051C565.191 117.051 567.253 119.617 567.253 123.625V123.648C567.253 127.68 565.214 130.211 561.98 130.211C560.234 130.211 558.746 129.355 558.066 127.984H557.878V134.242H555.336ZM561.265 128.043C563.386 128.043 564.664 126.379 564.664 123.648V123.625C564.664 120.883 563.386 119.23 561.265 119.23C559.144 119.23 557.832 120.906 557.832 123.625V123.648C557.832 126.367 559.144 128.043 561.265 128.043ZM575.703 130.246C571.964 130.246 569.679 127.75 569.679 123.648V123.625C569.679 119.535 571.976 117.027 575.703 117.027C579.418 117.027 581.714 119.523 581.714 123.625V123.648C581.714 127.75 579.429 130.246 575.703 130.246ZM575.703 128.125C577.882 128.125 579.125 126.461 579.125 123.648V123.625C579.125 120.801 577.882 119.148 575.703 119.148C573.511 119.148 572.281 120.801 572.281 123.625V123.648C572.281 126.473 573.511 128.125 575.703 128.125ZM584.75 130V117.273H587.293V119.195H587.48C587.937 117.848 589.121 117.051 590.82 117.051C591.23 117.051 591.675 117.109 591.933 117.168V119.512C591.476 119.418 591.043 119.359 590.562 119.359C588.617 119.359 587.293 120.555 587.293 122.395V130H584.75ZM599.421 130.082C596.621 130.082 595.472 129.098 595.472 126.648V119.277H593.48V117.273H595.472V114.062H598.062V117.273H600.793V119.277H598.062V126.039C598.062 127.41 598.578 127.973 599.832 127.973C600.218 127.973 600.441 127.961 600.793 127.926V129.953C600.382 130.023 599.914 130.082 599.421 130.082ZM608.961 130.246C605.234 130.246 602.984 127.703 602.984 123.672V123.66C602.984 119.688 605.281 117.027 608.832 117.027C612.382 117.027 614.562 119.594 614.562 123.414V124.305H605.539C605.586 126.742 606.921 128.16 609.019 128.16C610.648 128.16 611.621 127.352 611.925 126.695L611.972 126.602L614.421 126.59L614.398 126.695C613.976 128.371 612.218 130.246 608.961 130.246ZM608.843 119.113C607.109 119.113 605.796 120.297 605.574 122.488H612.043C611.843 120.215 610.566 119.113 608.843 119.113ZM622.226 130.211C619.027 130.211 616.953 127.645 616.953 123.648V123.625C616.953 119.594 618.992 117.051 622.226 117.051C623.972 117.051 625.461 117.918 626.14 119.289H626.339V112.281H628.871V130H626.339V127.996H626.14C625.402 129.391 624.007 130.211 622.226 130.211ZM622.953 128.043C625.074 128.043 626.375 126.367 626.375 123.648V123.625C626.375 120.906 625.062 119.23 622.953 119.23C620.82 119.23 619.543 120.895 619.543 123.625V123.648C619.543 126.379 620.82 128.043 622.953 128.043ZM639.218 134.242V117.273H641.761V119.277H641.949C642.687 117.883 644.082 117.051 645.863 117.051C649.074 117.051 651.136 119.617 651.136 123.625V123.648C651.136 127.68 649.097 130.211 645.863 130.211C644.117 130.211 642.628 129.355 641.949 127.984H641.761V134.242H639.218ZM645.148 128.043C647.269 128.043 648.546 126.379 648.546 123.648V123.625C648.546 120.883 647.269 119.23 645.148 119.23C643.027 119.23 641.714 120.906 641.714 123.625V123.648C641.714 126.367 643.027 128.043 645.148 128.043ZM654.195 130V117.273H656.738V119.195H656.925C657.382 117.848 658.566 117.051 660.265 117.051C660.675 117.051 661.121 117.109 661.378 117.168V119.512C660.921 119.418 660.488 119.359 660.007 119.359C658.062 119.359 656.738 120.555 656.738 122.395V130H654.195ZM668.867 130.246C665.128 130.246 662.843 127.75 662.843 123.648V123.625C662.843 119.535 665.14 117.027 668.867 117.027C672.582 117.027 674.878 119.523 674.878 123.625V123.648C674.878 127.75 672.593 130.246 668.867 130.246ZM668.867 128.125C671.046 128.125 672.289 126.461 672.289 123.648V123.625C672.289 120.801 671.046 119.148 668.867 119.148C666.675 119.148 665.445 120.801 665.445 123.625V123.648C665.445 126.473 666.675 128.125 668.867 128.125ZM677.914 134.242V117.273H680.457V119.277H680.644C681.382 117.883 682.777 117.051 684.558 117.051C687.769 117.051 689.832 119.617 689.832 123.625V123.648C689.832 127.68 687.793 130.211 684.558 130.211C682.812 130.211 681.324 129.355 680.644 127.984H680.457V134.242H677.914ZM683.843 128.043C685.964 128.043 687.242 126.379 687.242 123.648V123.625C687.242 120.883 685.964 119.23 683.843 119.23C681.722 119.23 680.41 120.906 680.41 123.625V123.648C680.41 126.367 681.722 128.043 683.843 128.043ZM698.234 130.246C694.507 130.246 692.257 127.703 692.257 123.672V123.66C692.257 119.688 694.554 117.027 698.105 117.027C701.656 117.027 703.836 119.594 703.836 123.414V124.305H694.812C694.859 126.742 696.195 128.16 698.293 128.16C699.921 128.16 700.894 127.352 701.199 126.695L701.246 126.602L703.695 126.59L703.671 126.695C703.25 128.371 701.492 130.246 698.234 130.246ZM698.117 119.113C696.382 119.113 695.07 120.297 694.847 122.488H701.316C701.117 120.215 699.839 119.113 698.117 119.113ZM706.859 130V117.273H709.402V119.195H709.589C710.046 117.848 711.23 117.051 712.929 117.051C713.339 117.051 713.785 117.109 714.043 117.168V119.512C713.586 119.418 713.152 119.359 712.671 119.359C710.726 119.359 709.402 120.555 709.402 122.395V130H706.859ZM716.586 130V112.281H719.128V130H716.586ZM724.156 134.477C723.839 134.477 723.464 134.453 723.136 134.418V132.414C723.382 132.449 723.699 132.461 723.992 132.461C725.175 132.461 725.878 131.957 726.265 130.668L726.453 130.012L721.836 117.273H724.578L727.765 127.445H727.988L731.164 117.273H733.836L729.101 130.492C728.023 133.539 726.734 134.477 724.156 134.477ZM738.371 121.316C737.398 121.316 736.648 120.566 736.648 119.617C736.648 118.656 737.398 117.906 738.371 117.906C739.343 117.906 740.082 118.656 740.082 119.617C740.082 120.566 739.343 121.316 738.371 121.316ZM738.371 130.176C737.398 130.176 736.648 129.426 736.648 128.477C736.648 127.516 737.398 126.766 738.371 126.766C739.343 126.766 740.082 127.516 740.082 128.477C740.082 129.426 739.343 130.176 738.371 130.176Z" fill="#FDFDFC"/>
<rect x="144.164" y="177" width="700.836" height="315" rx="7" fill="#3B3A3B"/>
<rect x="144.164" y="177" width="700.836" height="315" rx="7" stroke="#545354" stroke-width="2"/>
<path d="M176.222 207.41C171.523 207.41 168.593 204.012 168.593 198.562V198.539C168.593 193.078 171.511 189.68 176.211 189.68C179.937 189.68 182.796 192.035 183.242 195.398L183.23 195.457H180.628V195.422C180.136 193.348 178.437 192 176.211 192C173.175 192 171.277 194.52 171.277 198.539V198.562C171.277 202.57 173.175 205.09 176.222 205.09C178.461 205.09 180.136 203.895 180.617 201.984L180.64 201.938H183.242V202.008C182.75 205.254 179.996 207.41 176.222 207.41ZM186.523 207V189.281H189.066V207H186.523ZM194.175 192C193.296 192 192.582 191.285 192.582 190.418C192.582 189.539 193.296 188.824 194.175 188.824C195.043 188.824 195.769 189.539 195.769 190.418C195.769 191.285 195.043 192 194.175 192ZM192.898 207V194.273H195.429V207H192.898ZM199.132 211.242V194.273H201.675V196.277H201.863C202.601 194.883 203.996 194.051 205.777 194.051C208.988 194.051 211.05 196.617 211.05 200.625V200.648C211.05 204.68 209.011 207.211 205.777 207.211C204.031 207.211 202.543 206.355 201.863 204.984H201.675V211.242H199.132ZM205.062 205.043C207.183 205.043 208.461 203.379 208.461 200.648V200.625C208.461 197.883 207.183 196.23 205.062 196.23C202.941 196.23 201.628 197.906 201.628 200.625V200.648C201.628 203.367 202.941 205.043 205.062 205.043ZM214.109 211.242V194.273H216.652V196.277H216.839C217.578 194.883 218.972 194.051 220.753 194.051C223.964 194.051 226.027 196.617 226.027 200.625V200.648C226.027 204.68 223.988 207.211 220.753 207.211C219.007 207.211 217.519 206.355 216.839 204.984H216.652V211.242H214.109ZM220.039 205.043C222.16 205.043 223.437 203.379 223.437 200.648V200.625C223.437 197.883 222.16 196.23 220.039 196.23C217.918 196.23 216.605 197.906 216.605 200.625V200.648C216.605 203.367 217.918 205.043 220.039 205.043ZM230.41 192C229.531 192 228.816 191.285 228.816 190.418C228.816 189.539 229.531 188.824 230.41 188.824C231.277 188.824 232.003 189.539 232.003 190.418C232.003 191.285 231.277 192 230.41 192ZM229.132 207V194.273H231.664V207H229.132ZM235.367 207V194.273H237.91V196.207H238.097C238.718 194.848 239.937 194.027 241.789 194.027C244.636 194.027 246.207 195.727 246.207 198.762V207H243.675V199.359C243.675 197.25 242.796 196.207 240.933 196.207C239.07 196.207 237.91 197.484 237.91 199.535V207H235.367ZM255.136 211.488C251.902 211.488 249.91 210.07 249.605 207.949L249.628 207.926H252.195L252.207 207.949C252.418 208.828 253.449 209.449 255.171 209.449C257.269 209.449 258.511 208.465 258.511 206.73V204.223H258.324C257.55 205.605 256.144 206.379 254.398 206.379C251.128 206.379 249.113 203.859 249.113 200.273V200.25C249.113 196.617 251.14 194.051 254.445 194.051C256.226 194.051 257.609 194.93 258.347 196.359H258.5V194.273H261.031V206.742C261.031 209.637 258.746 211.488 255.136 211.488ZM255.101 204.281C257.257 204.281 258.558 202.641 258.558 200.262V200.238C258.558 197.871 257.246 196.207 255.101 196.207C252.933 196.207 251.714 197.871 251.714 200.238V200.262C251.714 202.629 252.933 204.281 255.101 204.281ZM273.699 207L270.183 194.273H272.738L275.023 204.094H275.211L277.836 194.273H280.25L282.875 204.094H283.074L285.347 194.273H287.867L284.363 207H281.75L279.113 197.508H278.914L276.289 207H273.699ZM291.793 192C290.914 192 290.199 191.285 290.199 190.418C290.199 189.539 290.914 188.824 291.793 188.824C292.66 188.824 293.386 189.539 293.386 190.418C293.386 191.285 292.66 192 291.793 192ZM290.515 207V194.273H293.046V207H290.515ZM296.867 207V189.281H299.41V207H296.867ZM303.312 207V189.281H305.855V207H303.312ZM322.964 207.211C321.183 207.211 319.789 206.391 319.05 204.996H318.863V207H316.32V189.281H318.863V196.289H319.05C319.73 194.918 321.218 194.051 322.964 194.051C326.199 194.051 328.238 196.594 328.238 200.625V200.648C328.238 204.645 326.175 207.211 322.964 207.211ZM322.25 205.043C324.371 205.043 325.648 203.379 325.648 200.648V200.625C325.648 197.895 324.371 196.23 322.25 196.23C320.128 196.23 318.816 197.906 318.816 200.625V200.648C318.816 203.367 320.128 205.043 322.25 205.043ZM336.617 207.246C332.89 207.246 330.64 204.703 330.64 200.672V200.66C330.64 196.688 332.937 194.027 336.488 194.027C340.039 194.027 342.218 196.594 342.218 200.414V201.305H333.195C333.242 203.742 334.578 205.16 336.675 205.16C338.304 205.16 339.277 204.352 339.582 203.695L339.628 203.602L342.078 203.59L342.054 203.695C341.632 205.371 339.875 207.246 336.617 207.246ZM336.5 196.113C334.765 196.113 333.453 197.297 333.23 199.488H339.699C339.5 197.215 338.222 196.113 336.5 196.113ZM351.921 207V189.281H354.464V207H351.921ZM363.64 207.246C359.902 207.246 357.617 204.75 357.617 200.648V200.625C357.617 196.535 359.914 194.027 363.64 194.027C367.355 194.027 369.652 196.523 369.652 200.625V200.648C369.652 204.75 367.367 207.246 363.64 207.246ZM363.64 205.125C365.82 205.125 367.062 203.461 367.062 200.648V200.625C367.062 197.801 365.82 196.148 363.64 196.148C361.449 196.148 360.218 197.801 360.218 200.625V200.648C360.218 203.473 361.449 205.125 363.64 205.125ZM377.316 207.246C374.246 207.246 372.3 205.805 372.054 203.672V203.66H374.597L374.609 203.672C374.925 204.633 375.851 205.277 377.363 205.277C378.933 205.277 380.023 204.562 380.023 203.52V203.496C380.023 202.699 379.425 202.16 377.949 201.82L375.921 201.352C373.519 200.801 372.406 199.711 372.406 197.848V197.836C372.406 195.621 374.468 194.027 377.351 194.027C380.257 194.027 382.121 195.48 382.343 197.555V197.566H379.918V197.543C379.671 196.652 378.769 195.984 377.339 195.984C375.945 195.984 374.937 196.676 374.937 197.695V197.719C374.937 198.516 375.523 199.008 376.953 199.348L378.968 199.805C381.418 200.379 382.589 201.422 382.589 203.262V203.285C382.589 205.641 380.339 207.246 377.316 207.246ZM390.336 207.082C387.535 207.082 386.386 206.098 386.386 203.648V196.277H384.394V194.273H386.386V191.062H388.976V194.273H391.707V196.277H388.976V203.039C388.976 204.41 389.492 204.973 390.746 204.973C391.132 204.973 391.355 204.961 391.707 204.926V206.953C391.296 207.023 390.828 207.082 390.336 207.082ZM406.625 207.246C402.886 207.246 400.601 204.75 400.601 200.648V200.625C400.601 196.535 402.898 194.027 406.625 194.027C410.339 194.027 412.636 196.523 412.636 200.625V200.648C412.636 204.75 410.351 207.246 406.625 207.246ZM406.625 205.125C408.804 205.125 410.046 203.461 410.046 200.648V200.625C410.046 197.801 408.804 196.148 406.625 196.148C404.433 196.148 403.203 197.801 403.203 200.625V200.648C403.203 203.473 404.433 205.125 406.625 205.125ZM415.671 207V194.273H418.214V196.207H418.402C419.023 194.848 420.242 194.027 422.093 194.027C424.941 194.027 426.511 195.727 426.511 198.762V207H423.98V199.359C423.98 197.25 423.101 196.207 421.238 196.207C419.375 196.207 418.214 197.484 418.214 199.535V207H415.671ZM436.625 207V194.273H439.168V196.195H439.355C439.812 194.848 440.996 194.051 442.695 194.051C443.105 194.051 443.55 194.109 443.808 194.168V196.512C443.351 196.418 442.918 196.359 442.437 196.359C440.492 196.359 439.168 197.555 439.168 199.395V207H436.625ZM451.296 207.246C447.558 207.246 445.273 204.75 445.273 200.648V200.625C445.273 196.535 447.57 194.027 451.296 194.027C455.011 194.027 457.308 196.523 457.308 200.625V200.648C457.308 204.75 455.023 207.246 451.296 207.246ZM451.296 205.125C453.476 205.125 454.718 203.461 454.718 200.648V200.625C454.718 197.801 453.476 196.148 451.296 196.148C449.105 196.148 447.875 197.801 447.875 200.625V200.648C447.875 203.473 449.105 205.125 451.296 205.125ZM464.586 207.246C461.714 207.246 460.226 205.523 460.226 202.512V194.273H462.769V201.914C462.769 204.023 463.543 205.066 465.406 205.066C467.445 205.066 468.535 203.789 468.535 201.738V194.273H471.066V207H468.535V205.078H468.336C467.726 206.449 466.437 207.246 464.586 207.246ZM474.734 207V194.273H477.277V196.207H477.464C478.086 194.848 479.304 194.027 481.156 194.027C484.003 194.027 485.574 195.727 485.574 198.762V207H483.043V199.359C483.043 197.25 482.164 196.207 480.3 196.207C478.437 196.207 477.277 197.484 477.277 199.535V207H474.734ZM493.765 207.211C490.566 207.211 488.492 204.645 488.492 200.648V200.625C488.492 196.594 490.531 194.051 493.765 194.051C495.511 194.051 497 194.918 497.679 196.289H497.878V189.281H500.41V207H497.878V204.996H497.679C496.941 206.391 495.546 207.211 493.765 207.211ZM494.492 205.043C496.613 205.043 497.914 203.367 497.914 200.648V200.625C497.914 197.906 496.601 196.23 494.492 196.23C492.359 196.23 491.082 197.895 491.082 200.625V200.648C491.082 203.379 492.359 205.043 494.492 205.043ZM509 207.082C506.199 207.082 505.05 206.098 505.05 203.648V196.277H503.058V194.273H505.05V191.062H507.64V194.273H510.371V196.277H507.64V203.039C507.64 204.41 508.156 204.973 509.41 204.973C509.796 204.973 510.019 204.961 510.371 204.926V206.953C509.961 207.023 509.492 207.082 509 207.082ZM513.336 207V194.273H515.878V196.195H516.066C516.523 194.848 517.707 194.051 519.406 194.051C519.816 194.051 520.261 194.109 520.519 194.168V196.512C520.062 196.418 519.628 196.359 519.148 196.359C517.203 196.359 515.878 197.555 515.878 199.395V207H513.336ZM524.269 192C523.39 192 522.675 191.285 522.675 190.418C522.675 189.539 523.39 188.824 524.269 188.824C525.136 188.824 525.863 189.539 525.863 190.418C525.863 191.285 525.136 192 524.269 192ZM522.992 207V194.273H525.523V207H522.992ZM529.226 211.242V194.273H531.769V196.277H531.957C532.695 194.883 534.089 194.051 535.871 194.051C539.082 194.051 541.144 196.617 541.144 200.625V200.648C541.144 204.68 539.105 207.211 535.871 207.211C534.125 207.211 532.636 206.355 531.957 204.984H531.769V211.242H529.226ZM535.156 205.043C537.277 205.043 538.554 203.379 538.554 200.648V200.625C538.554 197.883 537.277 196.23 535.156 196.23C533.035 196.23 531.722 197.906 531.722 200.625V200.648C531.722 203.367 533.035 205.043 535.156 205.043ZM555.57 207.082C552.769 207.082 551.621 206.098 551.621 203.648V196.277H549.628V194.273H551.621V191.062H554.211V194.273H556.941V196.277H554.211V203.039C554.211 204.41 554.726 204.973 555.98 204.973C556.367 204.973 556.589 204.961 556.941 204.926V206.953C556.531 207.023 556.062 207.082 555.57 207.082ZM565.156 207.246C561.418 207.246 559.132 204.75 559.132 200.648V200.625C559.132 196.535 561.429 194.027 565.156 194.027C568.871 194.027 571.168 196.523 571.168 200.625V200.648C571.168 204.75 568.882 207.246 565.156 207.246ZM565.156 205.125C567.336 205.125 568.578 203.461 568.578 200.648V200.625C568.578 197.801 567.336 196.148 565.156 196.148C562.964 196.148 561.734 197.801 561.734 200.625V200.648C561.734 203.473 562.964 205.125 565.156 205.125ZM585.347 207V192.352H580.027V190.09H593.281V192.352H587.972V207H585.347ZM597.3 192C596.421 192 595.707 191.285 595.707 190.418C595.707 189.539 596.421 188.824 597.3 188.824C598.168 188.824 598.894 189.539 598.894 190.418C598.894 191.285 598.168 192 597.3 192ZM596.023 207V194.273H598.554V207H596.023ZM602.257 207V194.273H604.8V196.207H604.988C605.609 194.848 606.828 194.027 608.679 194.027C611.527 194.027 613.097 195.727 613.097 198.762V207H610.566V199.359C610.566 197.25 609.687 196.207 607.824 196.207C605.961 196.207 604.8 197.484 604.8 199.535V207H602.257ZM617.468 211.477C617.152 211.477 616.777 211.453 616.449 211.418V209.414C616.695 209.449 617.011 209.461 617.304 209.461C618.488 209.461 619.191 208.957 619.578 207.668L619.765 207.012L615.148 194.273H617.89L621.078 204.445H621.3L624.476 194.273H627.148L622.414 207.492C621.336 210.539 620.046 211.477 617.468 211.477Z" fill="#FDFDFC"/>
<rect x="143.164" y="541" width="28.8364" height="28.8364" rx="4.80607" fill="#B7B7B8"/>
<rect x="145.436" y="543.403" width="24.0304" height="24.0304" fill="#494848"/>
<path d="M186.121 564V547.09H192.227C197.242 547.09 200.184 550.184 200.184 555.492V555.516C200.184 560.883 197.266 564 192.227 564H186.121ZM188.746 561.738H191.934C195.473 561.738 197.512 559.477 197.512 555.551V555.527C197.512 551.637 195.438 549.352 191.934 549.352H188.746V561.738ZM208.844 564.246C205.106 564.246 202.82 561.75 202.82 557.648V557.625C202.82 553.535 205.117 551.027 208.844 551.027C212.559 551.027 214.856 553.523 214.856 557.625V557.648C214.856 561.75 212.57 564.246 208.844 564.246ZM208.844 562.125C211.023 562.125 212.266 560.461 212.266 557.648V557.625C212.266 554.801 211.023 553.148 208.844 553.148C206.652 553.148 205.422 554.801 205.422 557.625V557.648C205.422 560.473 206.652 562.125 208.844 562.125ZM217.891 564V551.273H220.434V553.207H220.621C221.242 551.848 222.461 551.027 224.313 551.027C227.16 551.027 228.731 552.727 228.731 555.762V564H226.199V556.359C226.199 554.25 225.32 553.207 223.457 553.207C221.594 553.207 220.434 554.484 220.434 556.535V564H217.891ZM232.363 553.969L233.395 547.09H236.102L234.156 553.969H232.363ZM244.656 564.082C241.856 564.082 240.707 563.098 240.707 560.648V553.277H238.715V551.273H240.707V548.062H243.297V551.273H246.027V553.277H243.297V560.039C243.297 561.41 243.813 561.973 245.066 561.973C245.453 561.973 245.676 561.961 246.027 561.926V563.953C245.617 564.023 245.148 564.082 244.656 564.082ZM261.566 564.41C257.746 564.41 255.297 562.477 255.063 559.629L255.051 559.477H257.629L257.641 559.605C257.781 561.141 259.41 562.125 261.672 562.125C263.828 562.125 265.363 561.047 265.363 559.477V559.465C265.363 558.164 264.449 557.32 262.211 556.84L260.359 556.441C256.926 555.715 255.449 554.121 255.449 551.625V551.613C255.461 548.695 257.992 546.68 261.578 546.68C265.164 546.68 267.508 548.707 267.695 551.332L267.707 551.496H265.164L265.141 551.344C264.918 549.961 263.594 548.953 261.543 548.965C259.563 548.965 258.098 549.891 258.098 551.484V551.496C258.098 552.75 258.988 553.57 261.18 554.039L263.02 554.449C266.57 555.211 268.023 556.641 268.023 559.148V559.16C268.023 562.395 265.504 564.41 261.566 564.41ZM271.305 564V546.281H273.848V553.207H274.035C274.656 551.848 275.875 551.027 277.727 551.027C280.574 551.027 282.145 552.727 282.145 555.762V564H279.613V556.359C279.613 554.25 278.734 553.207 276.871 553.207C275.008 553.207 273.848 554.484 273.848 556.535V564H271.305ZM291.086 564.246C287.348 564.246 285.063 561.75 285.063 557.648V557.625C285.063 553.535 287.359 551.027 291.086 551.027C294.801 551.027 297.098 553.523 297.098 557.625V557.648C297.098 561.75 294.813 564.246 291.086 564.246ZM291.086 562.125C293.266 562.125 294.508 560.461 294.508 557.648V557.625C294.508 554.801 293.266 553.148 291.086 553.148C288.895 553.148 287.664 554.801 287.664 557.625V557.648C287.664 560.473 288.895 562.125 291.086 562.125ZM302.09 564L298.574 551.273H301.129L303.414 561.094H303.602L306.227 551.273H308.641L311.266 561.094H311.465L313.738 551.273H316.258L312.754 564H310.141L307.504 554.508H307.305L304.68 564H302.09ZM324.414 564L330.52 547.09H333.356L339.461 564H336.695L335.172 559.43H328.703L327.168 564H324.414ZM331.832 550.055L329.406 557.32H334.469L332.031 550.055H331.832ZM346.785 568.488C343.551 568.488 341.559 567.07 341.254 564.949L341.277 564.926H343.844L343.856 564.949C344.066 565.828 345.098 566.449 346.82 566.449C348.918 566.449 350.16 565.465 350.16 563.73V561.223H349.973C349.199 562.605 347.793 563.379 346.047 563.379C342.777 563.379 340.762 560.859 340.762 557.273V557.25C340.762 553.617 342.789 551.051 346.094 551.051C347.875 551.051 349.258 551.93 349.996 553.359H350.148V551.273H352.68V563.742C352.68 566.637 350.395 568.488 346.785 568.488ZM346.75 561.281C348.906 561.281 350.207 559.641 350.207 557.262V557.238C350.207 554.871 348.895 553.207 346.75 553.207C344.582 553.207 343.363 554.871 343.363 557.238V557.262C343.363 559.629 344.582 561.281 346.75 561.281ZM359.828 564.211C357.402 564.211 355.609 562.734 355.609 560.426V560.402C355.609 558.129 357.32 556.805 360.356 556.617L363.801 556.418V555.293C363.801 553.898 362.922 553.125 361.199 553.125C359.793 553.125 358.867 553.641 358.563 554.543L358.551 554.59H356.102L356.113 554.508C356.418 552.422 358.422 551.027 361.316 551.027C364.516 551.027 366.32 552.621 366.32 555.293V564H363.801V562.195H363.602C362.852 563.484 361.516 564.211 359.828 564.211ZM358.141 560.32C358.141 561.492 359.137 562.184 360.508 562.184C362.406 562.184 363.801 560.941 363.801 559.301V558.211L360.695 558.41C358.938 558.516 358.141 559.148 358.141 560.297V560.32ZM371.231 549C370.352 549 369.637 548.285 369.637 547.418C369.637 546.539 370.352 545.824 371.231 545.824C372.098 545.824 372.824 546.539 372.824 547.418C372.824 548.285 372.098 549 371.231 549ZM369.953 564V551.273H372.484V564H369.953ZM376.188 564V551.273H378.731V553.207H378.918C379.539 551.848 380.758 551.027 382.609 551.027C385.457 551.027 387.027 552.727 387.027 555.762V564H384.496V556.359C384.496 554.25 383.617 553.207 381.754 553.207C379.891 553.207 378.731 554.484 378.731 556.535V564H376.188Z" fill="#FDFDFC"/>
<rect x="667" y="533" width="179" height="45" rx="22.5" fill="#4BA2F3"/>
<path d="M748.328 564.41C743.406 564.41 740.43 560.977 740.43 555.551V555.527C740.43 550.09 743.477 546.68 748.328 546.68C753.191 546.68 756.215 550.102 756.215 555.527V555.551C756.215 560.965 753.215 564.41 748.328 564.41ZM748.328 562.09C751.539 562.09 753.531 559.512 753.531 555.551V555.527C753.531 551.531 751.527 549 748.328 549C745.129 549 743.113 551.531 743.113 555.527V555.551C743.113 559.512 745.07 562.09 748.328 562.09ZM759.777 564V547.09H762.402V555.082H762.59L769.586 547.09H772.691L766.152 554.426L773.254 564H769.973L764.301 556.207L762.402 558.363V564H759.777Z" fill="#FDFDFC"/>
</g>
</g>
<defs>
<filter id="filter0_i_13_52" x="0" y="0" width="878" height="610" filterUnits="userSpaceOnUse" color-interpolation-filters="sRGB">
<feFlood flood-opacity="0" result="BackgroundImageFix"/>
<feBlend mode="normal" in="SourceGraphic" in2="BackgroundImageFix" result="shape"/>
<feColorMatrix in="SourceAlpha" type="matrix" values="0 0 0 0 0 0 0 0 0 0 0 0 0 0 0 0 0 0 127 0" result="hardAlpha"/>
<feMorphology radius="2" operator="erode" in="SourceAlpha" result="effect1_innerShadow_13_52"/>
<feOffset/>
<feComposite in2="hardAlpha" operator="arithmetic" k2="-1" k3="1"/>
<feColorMatrix type="matrix" values="0 0 0 0 1 0 0 0 0 1 0 0 0 0 1 0 0 0 0.16 0"/>
<feBlend mode="normal" in2="shape" result="effect1_innerShadow_13_52"/>
</filter>
<filter id="filter1_dii_13_52" x="-4" y="-2" width="886" height="75" filterUnits="userSpaceOnUse" color-interpolation-filters="sRGB">
<feFlood flood-opacity="0" result="BackgroundImageFix"/>
<feColorMatrix in="SourceAlpha" type="matrix" values="0 0 0 0 0 0 0 0 0 0 0 0 0 0 0 0 0 0 127 0" result="hardAlpha"/>
<feOffset dy="2"/>
<feGaussianBlur stdDeviation="2"/>
<feComposite in2="hardAlpha" operator="out"/>
<feColorMatrix type="matrix" values="0 0 0 0 0 0 0 0 0 0 0 0 0 0 0 0 0 0 0.45 0"/>
<feBlend mode="normal" in2="BackgroundImageFix" result="effect1_dropShadow_13_52"/>
<feBlend mode="normal" in="SourceGraphic" in2="effect1_dropShadow_13_52" result="shape"/>
<feColorMatrix in="SourceAlpha" type="matrix" values="0 0 0 0 0 0 0 0 0 0 0 0 0 0 0 0 0 0 127 0" result="hardAlpha"/>
<feMorphology radius="1" operator="erode" in="SourceAlpha" result="effect2_innerShadow_13_52"/>
<feOffset dy="3"/>
<feComposite in2="hardAlpha" operator="arithmetic" k2="-1" k3="1"/>
<feColorMatrix type="matrix" values="0 0 0 0 1 0 0 0 0 1 0 0 0 0 1 0 0 0 0.45 0"/>
<feBlend mode="normal" in2="shape" result="effect2_innerShadow_13_52"/>
<feColorMatrix in="SourceAlpha" type="matrix" values="0 0 0 0 0 0 0 0 0 0 0 0 0 0 0 0 0 0 127 0" result="hardAlpha"/>
<feOffset dy="2"/>
<feComposite in2="hardAlpha" operator="arithmetic" k2="-1" k3="1"/>
<feColorMatrix type="matrix" values="0 0 0 0 0 0 0 0 0 0 0 0 0 0 0 0 0 0 0.3 0"/>
<feBlend mode="normal" in2="effect2_innerShadow_13_52" result="effect3_innerShadow_13_52"/>
</filter>
<clipPath id="clip0_13_52">
<rect width="878" height="610" rx="24" fill="white"/>
</clipPath>
</defs>
</svg>
